{"title":"Excuse.Me.for.Living.2012.WEBRip XViD -juggs","uid":8160024,"size":747901791,"categoryP":"video","categoryS":"movies","magnet":"?xt=urn:btih:61ff2d4a84b9ac24832ad45eeff6459dad11f356&amp;dn=Excuse.Me.for.Living.2012.WEBRip+XViD+-juggs&amp;tr=udp%3A%2F%2Ftracker.openbittorrent.com%3A80&amp;tr=udp%3A%2F%2Fopen.demonii.com%3A1337&amp;tr=udp%3A%2F%2Ftracker.coppersurfer.tk%3A6969&amp;tr=udp%3A%2F%2Fexodus.desync.com%3A6969","seeders":5,"leechers":0,"uploader":"juggs99","files":3,"time":1361233885,"description":" &lt;a href=&quot;http://img43.imageshack.us/img43/9576/63763391.jpg&quot; rel=&quot;nofollow&quot; target=&quot;_NEW&quot;&gt;http://img43.imageshack.us/img43/9576/63763391.jpg&lt;/a&gt;\n\n\nFormat : AVI\nFormat/Info : Audio Video Interleave\nFile size : 702 MiB\nDuration : 1h 45mn\nOverall bit rate : 931 Kbps\nWriting library : VirtualDub build 32842/release\n\nVideo\nID : 0\nFormat : MPEG-4 Visual\nFormat profile : Advanced Simple@L5\nFormat settings, BVOP : 4\nFormat settings, QPel : No\nFormat settings, GMC : No warppoints\nFormat settings, Matrix : Default (H.263)\nMuxing mode : Packed bitstream\nCodec ID : XVID\nCodec ID/Hint : XviD\nDuration : 1h 45mn\nBit rate : 793 Kbps\nWidth : 640 pixels\nHeight : 352 pixels\nDisplay aspect ratio : 16:9\nFrame rate : 23.976 fps\nColor space : YUV\nChroma subsampling : 4:2:0\nBit depth : 8 bits\nScan type : Progressive\nCompression mode : Lossy\nBits/(Pixel*Frame) : 0.147\nStream size : 599 MiB (85%)\nWriting library : XviD 64\n\nAudio\nID : 1\nFormat : MPEG Audio\nFormat version : Version 1\nFormat profile : Layer 3\nCodec ID : 55\nCodec ID/Hint : MP3\nDuration : 1h 45mn\nBit rate mode : Constant\nBit rate : 128 Kbps\nChannel(s) : 2 channels\nSampling rate : 44.1 KHz\nCompression mode : Lossy\nStream size : 96.6 MiB (14%)\nAlignment : Split accross interleaves\nInterleave, duration : 42 ms (1.00 video frame)\nInterleave, preload duration : 500 ms\nWriting library : LAME3.99r\nEncoding settings : -m s -V 4 -q 3 -lowpass 17 -b 128\n\n\nPlot\n\nA charming, suicidal druggie must obey his rehab-clinic's demand to lead a seniors men's group or face incarceration and lose the love of his psychiatrist's daughter.\n\n &lt;a href=&quot;\nhttp://www.shotpix.com/images/25267055876837121534.png&quot; rel=&quot;nofollow&quot; target=&quot;_NEW&quot;&gt;\nhttp://www.shotpix.com/images/25267055876837121534.png&lt;/a&gt; &lt;a href=&quot;\nhttp://www.shotpix.com/images/37188403042622937741.png&quot; rel=&quot;nofollow&quot; target=&quot;_NEW&quot;&gt;\nhttp://www.shotpix.com/images/37188403042622937741.png&lt;/a&gt; &lt;a href=&quot;\nhttp://www.shotpix.com/images/74182896133527246748.png&quot; rel=&quot;nofollow&quot; target=&quot;_NEW&quot;&gt;\nhttp://www.shotpix.com/images/74182896133527246748.png&lt;/a&gt;","torrent":{"xt":"urn:btih:61ff2d4a84b9ac24832ad45eeff6459dad11f356","amp;dn":"Excuse.Me.for.Living.2012.WEBRip+XViD+-juggs","amp;tr":["udp%3A%2F%2Ftracker.openbittorrent.com%3A80","udp%3A%2F%2Fopen.demonii.com%3A1337","udp%3A%2F%2Ftracker.coppersurfer.tk%3A6969","udp%3A%2F%2Fexodus.desync.com%3A6969"],"infoHash":"61ff2d4a84b9ac24832ad45eeff6459dad11f356","infoHashBuffer":{"type":"Buffer","data":[97,255,45,74,132,185,172,36,131,42,212,94,239,246,69,157,173,17,243,86]},"announce":[],"urlList":[]}}